<svg id="Layer_1" data-name="Layer 1" xmlns="http://www.w3.org/2000/svg" xmlns:xlink="http://www.w3.org/1999/xlink" viewBox="0 0 64 64">
  <defs>
    <style>
      .cls-1, .cls-7 {
        fill: #fff;
      }

      .cls-2 {
        clip-path: url(#clip-path);
      }

      .cls-3 {
        fill: #3a1c66;
      }

      .cls-4, .cls-9 {
        fill: #4f4f4f;
      }

      .cls-4, .cls-5 {
        fill-opacity: 0.15;
      }

      .cls-5 {
        fill: #231f20;
      }

      .cls-5, .cls-8 {
        fill-rule: evenodd;
      }

      .cls-6 {
        fill: #dedcd9;
      }

      .cls-7 {
        opacity: 0.5;
      }

      .cls-8 {
        fill: #9146ff;
      }

      .cls-9 {
        opacity: 0.6;
      }

      .cls-10 {
        fill: #a6a69f;
      }
    </style>
    <clipPath id="clip-path">
      <path class="cls-1" d="M8,53.92a3,3,0,0,1-3-3V13a3,3,0,0,1,3-3H56a3,3,0,0,1,3,3V37.1L49.29,53.92Z"/>
    </clipPath>
  </defs>
  <g>
    <path class="cls-1" d="M8,53.92a3,3,0,0,1-3-3V13a3,3,0,0,1,3-3H56a3,3,0,0,1,3,3V37.1L49.29,53.92Z"/>
    <g class="cls-2">
      <g>
        <rect class="cls-3" x="5" y="10" width="54" height="13"/>
        <polygon class="cls-4" points="58.97 53.92 18.7 53.92 58.97 30.67 58.97 53.92"/>
        <path class="cls-5" d="M19,15V10H33.66L22,16.73A2,2,0,0,1,19,15Zm25,2a2,2,0,0,0,1-.27L56.66,10H42v5A2,2,0,0,0,44,17Z"/>
      </g>
    </g>
  </g>
  <g>
    <path class="cls-6" d="M45.94,48.1l3.35,5.82L59,37.1,47,44A3,3,0,0,0,45.94,48.1Z"/>
    <path class="cls-7" d="M45.94,48.1l3.35,5.82L59,37.1,47,44A3,3,0,0,0,45.94,48.1Z"/>
  </g>
  <path class="cls-8" d="M13,26c0,4.34,1.93,11,9,11,4.77,0,8-3,9-8h2c1,5,4.23,8,9,8,7.07,0,9-6.66,9-11H13Z"/>
  <path class="cls-9" d="M32,49c-10.77,0-12.44-8-12.48-8.29l3-.44C22.52,40.5,23.62,46,32,46s9.51-5.66,9.51-5.71l3,.42C44.44,41.05,42.77,49,32,49Z"/>
  <path class="cls-10" d="M23,15a2,2,0,0,1-2,2H20a2,2,0,0,1-2-2V5a2,2,0,0,1,2-2h1a2,2,0,0,1,2,2ZM46,5a2,2,0,0,0-2-2H43a2,2,0,0,0-2,2V15a2,2,0,0,0,2,2h1a2,2,0,0,0,2-2Z"/>
</svg>
