<svg id="Layer_1" data-name="Layer 1" xmlns="http://www.w3.org/2000/svg" xmlns:xlink="http://www.w3.org/1999/xlink" viewBox="0 0 64 64">
  <defs>
    <style>
      .cls-1, .cls-2, .cls-8 {
        fill: #3a1c66;
      }

      .cls-1 {
        clip-rule: evenodd;
      }

      .cls-3 {
        opacity: 0.15;
      }

      .cls-4 {
        fill: #9146ff;
      }

      .cls-10, .cls-5 {
        opacity: 0.3;
      }

      .cls-10, .cls-6, .cls-7 {
        fill: #fff;
      }

      .cls-7 {
        opacity: 0.5;
      }

      .cls-11, .cls-8 {
        fill-rule: evenodd;
      }

      .cls-9 {
        clip-path: url(#clip-path);
      }

      .cls-11 {
        fill: #4f4f4f;
      }
    </style>
    <clipPath id="clip-path">
      <path class="cls-1" d="M26,4A22,22,0,1,0,48,26,22,22,0,0,0,26,4Zm0,38A16,16,0,1,1,42,26,16,16,0,0,1,26,42Z"/>
    </clipPath>
  </defs>
  <g>
    <rect class="cls-2" x="40.12" y="36.73" width="6.77" height="13.55" transform="translate(-18.02 43.51) rotate(-45.01)"/>
    <rect class="cls-3" x="40.12" y="36.73" width="6.77" height="13.55" transform="translate(-18.02 43.51) rotate(-45.01)"/>
  </g>
  <g>
    <path class="cls-4" d="M7,24h7v4H7Zm31,0v4h7V24ZM28,7H24v7h4ZM24,45h4V38H24Z"/>
    <g class="cls-5">
      <path class="cls-6" d="M7,24h7v4H7Zm31,0v4h7V24ZM28,7H24v7h4ZM24,45h4V38H24Z"/>
    </g>
  </g>
  <g>
    <polygon class="cls-4" points="28 20 24 20 24 24 20 24 20 28 24 28 24 32 28 32 28 28 32 28 32 24 28 24 28 20"/>
    <polygon class="cls-7" points="28 20 24 20 24 24 20 24 20 28 24 28 24 32 28 32 28 28 32 28 32 24 28 24 28 20"/>
  </g>
  <g>
    <path class="cls-8" d="M26,4A22,22,0,1,0,48,26,22,22,0,0,0,26,4Zm0,38A16,16,0,1,1,42,26,16,16,0,0,1,26,42Z"/>
    <g class="cls-9">
      <rect class="cls-10" x="24" y="4" width="24.75" height="45.75"/>
    </g>
  </g>
  <path class="cls-11" d="M59.66,52.24l0,0L46.34,41.56l-4.79,4.79L52.2,59.7l0,0a5.25,5.25,0,1,0,7.42-7.42Z"/>
</svg>
